<svg width="418" height="294" viewBox="0 0 418 294" fill="none" xmlns="http://www.w3.org/2000/svg">
<path d="M2 242L69 242" stroke="#D09C34" stroke-width="4"/>
<path d="M348 242L415 242" stroke="#D09C34" stroke-width="4"/>
<path d="M85.62 252L94.3 228.75H98.981L107.599 252H103.228L96.005 231.354H97.214L89.96 252H85.62ZM90.363 246.73L90.518 243.103H102.949L103.135 246.73H90.363ZM133.936 252.465C132.303 252.465 130.826 252.186 129.503 251.628C128.18 251.049 127.044 250.233 126.093 249.179C125.142 248.104 124.409 246.823 123.892 245.335C123.396 243.847 123.148 242.194 123.148 240.375C123.148 238.536 123.396 236.882 123.892 235.415C124.409 233.927 125.132 232.656 126.062 231.602C127.013 230.527 128.139 229.711 129.441 229.153C130.743 228.574 132.2 228.285 133.812 228.285C135.672 228.285 137.274 228.636 138.617 229.339C139.981 230.021 141.056 230.992 141.841 232.253C142.647 233.493 143.122 234.94 143.267 236.593H138.989C138.824 235.684 138.514 234.898 138.059 234.237C137.625 233.555 137.057 233.028 136.354 232.656C135.651 232.263 134.825 232.067 133.874 232.067C132.593 232.067 131.477 232.418 130.526 233.121C129.575 233.803 128.842 234.774 128.325 236.035C127.808 237.275 127.55 238.722 127.55 240.375C127.55 242.028 127.808 243.485 128.325 244.746C128.842 245.986 129.575 246.957 130.526 247.66C131.497 248.363 132.644 248.714 133.967 248.714C135.124 248.714 136.065 248.476 136.788 248.001C137.532 247.526 138.1 246.906 138.493 246.141C138.886 245.376 139.144 244.539 139.268 243.63H143.515C143.391 245.469 142.916 247.05 142.089 248.373C141.283 249.675 140.188 250.688 138.803 251.411C137.439 252.114 135.817 252.465 133.936 252.465ZM158.749 252L167.429 228.75H172.11L180.728 252H176.357L169.134 231.354H170.343L163.089 252H158.749ZM163.492 246.73L163.647 243.103H176.078L176.264 246.73H163.492ZM197.964 252V228.75H206.551C208.783 228.75 210.705 229.225 212.317 230.176C213.95 231.127 215.211 232.47 216.099 234.206C216.988 235.942 217.432 237.988 217.432 240.344C217.432 242.7 216.988 244.756 216.099 246.513C215.211 248.249 213.95 249.603 212.317 250.574C210.705 251.525 208.783 252 206.551 252H197.964ZM202.18 248.466H206.551C207.895 248.466 209.052 248.146 210.023 247.505C211.015 246.844 211.77 245.903 212.286 244.684C212.803 243.465 213.061 242.018 213.061 240.344C213.061 238.67 212.803 237.234 212.286 236.035C211.77 234.816 211.015 233.886 210.023 233.245C209.052 232.584 207.895 232.253 206.551 232.253H202.18V248.466ZM235.739 252V228.75H250.681V232.439H239.955V238.236H249.999V241.801H239.955V248.28H250.681V252H235.739ZM268.792 252V228.75H274.558L282.091 248.838H280.386L288.043 228.75H293.654V252H289.5V231.726L290.306 231.819L288.632 236.872L282.835 252H279.301L273.752 236.965L272.14 231.819L272.791 231.726V252H268.792ZM318.071 252V241.212L318.815 243.816L310.166 228.75H314.909L321.078 240.313H319.249L325.418 228.75H330.13L321.326 243.816L322.101 241.212V252H318.071Z" fill="#D09C34"/>
<path d="M7.336 167.4H14.18V189.208L33.552 167.4H41.614L14.18 197.502V208H7.336V167.4ZM25.142 183.814L42.658 208H34.422L20.618 189.266L25.142 183.814ZM86.3189 167.4C91.5389 167.4 95.5602 168.618 98.3829 171.054C101.244 173.451 102.675 176.835 102.675 181.204C102.675 185.767 101.244 189.324 98.3829 191.876C95.5602 194.389 91.5389 195.646 86.3189 195.646H76.6909V208H69.8469V167.4H86.3189ZM86.3189 189.788C89.4509 189.788 91.8675 189.111 93.5689 187.758C95.3089 186.366 96.1789 184.239 96.1789 181.378C96.1789 178.633 95.3089 176.603 93.5689 175.288C91.8675 173.935 89.4509 173.258 86.3189 173.258H76.6909V189.788H86.3189ZM86.5509 192.978H93.2789L103.371 208H95.5989L86.5509 192.978ZM132.641 167.4H139.485V208H132.641V167.4ZM166.209 167.4H198.747V173.258H185.871V208H179.027V173.258H166.209V167.4ZM225.491 167.4H232.335V185.206H253.853V167.4H260.697V208H253.853V191.006H232.335V208H225.491V167.4ZM298.282 191.354C298.282 194.873 299.248 197.637 301.182 199.648C303.115 201.659 305.725 202.664 309.012 202.664C312.26 202.664 314.831 201.678 316.726 199.706C318.62 197.695 319.568 194.911 319.568 191.354V167.4H326.412V191.354C326.412 194.873 325.716 197.927 324.324 200.518C322.932 203.07 320.921 205.042 318.292 206.434C315.701 207.787 312.608 208.464 309.012 208.464C305.377 208.464 302.245 207.787 299.616 206.434C296.986 205.042 294.956 203.07 293.526 200.518C292.134 197.927 291.438 194.873 291.438 191.354V167.4H298.282V191.354ZM357.139 167.4H363.867L387.357 199.59L385.617 200.17V167.4H392.345V208H385.617L362.185 175.868L363.983 175.288V208H357.139V167.4Z" fill="#0A1D3D"/>
<path d="M1.7 289V276.692H4.063V287.096H9.214V289H1.7ZM7.565 287.487L7.82 286.093C7.854 285.934 7.91067 285.815 7.99 285.736C8.06933 285.645 8.18833 285.6 8.347 285.6H9.214V287.096L7.565 287.487ZM0.442 289V288.014C0.442 287.855 0.481667 287.736 0.561 287.657C0.651667 287.578 0.776333 287.521 0.935 287.487L1.904 287.283L2.125 289H0.442ZM2.125 276.692L1.904 278.409L0.935 278.205C0.776333 278.171 0.651667 278.114 0.561 278.035C0.481667 277.956 0.442 277.837 0.442 277.678V276.692H2.125ZM5.355 276.692V277.678C5.355 277.837 5.30967 277.956 5.219 278.035C5.12833 278.114 5.00933 278.171 4.862 278.205L3.876 278.409L3.672 276.692H5.355ZM16.0099 289V276.692H23.7959V278.528H18.3729V281.928H22.4869V283.696H18.3729V287.164H23.7959V289H16.0099ZM22.1299 287.555L22.3849 286.161C22.4302 286.002 22.4926 285.883 22.5719 285.804C22.6512 285.713 22.7646 285.668 22.9119 285.668H23.7959V287.164L22.1299 287.555ZM22.1299 278.137L23.7959 278.528V280.024H22.9119C22.7646 280.024 22.6512 279.984 22.5719 279.905C22.4926 279.814 22.4302 279.69 22.3849 279.531L22.1299 278.137ZM16.4349 276.692L16.2309 278.409L15.2449 278.205C15.0975 278.171 14.9785 278.114 14.8879 278.035C14.7972 277.956 14.7519 277.837 14.7519 277.678V276.692H16.4349ZM14.7519 289V288.014C14.7519 287.855 14.7915 287.736 14.8709 287.657C14.9615 287.578 15.0862 287.521 15.2449 287.487L16.2139 287.283L16.4349 289H14.7519ZM30.0468 289L34.8748 276.692H37.2718L42.0998 289H40.2808C40.0768 289 39.9068 288.949 39.7708 288.847C39.6348 288.745 39.5442 288.62 39.4988 288.473L36.5408 280.296C36.4728 280.081 36.3935 279.854 36.3028 279.616C36.2235 279.378 36.1498 279.112 36.0818 278.817C35.9912 279.112 35.9062 279.378 35.8268 279.616C35.7475 279.843 35.6738 280.075 35.6058 280.313L32.6478 288.473C32.6025 288.609 32.5118 288.734 32.3758 288.847C32.2398 288.949 32.0698 289 31.8658 289H30.0468ZM31.5598 289V287.861H33.1238V289H31.5598ZM33.0728 285.617L33.3618 283.985H38.6828L38.9718 285.617H33.0728ZM38.8528 289V287.861H40.5188V289H38.8528ZM29.5368 289V288.014C29.5368 287.855 29.5822 287.736 29.6728 287.657C29.7635 287.578 29.8825 287.521 30.0298 287.487L31.0158 287.283L31.2198 289H29.5368ZM32.3928 289L32.6138 287.283L33.5828 287.487C33.7415 287.521 33.8605 287.578 33.9398 287.657C34.0305 287.736 34.0758 287.855 34.0758 288.014V289H32.3928ZM38.0538 289V288.014C38.0538 287.855 38.0992 287.736 38.1898 287.657C38.2805 287.578 38.3995 287.521 38.5468 287.487L39.5328 287.283L39.7368 289H38.0538ZM40.9098 289L41.1308 287.283L42.0998 287.487C42.2585 287.521 42.3775 287.578 42.4568 287.657C42.5475 287.736 42.5928 287.855 42.5928 288.014V289H40.9098ZM49.3943 289V276.692H53.1853C54.16 276.692 54.9986 276.822 55.7013 277.083C56.4153 277.332 56.965 277.718 57.3503 278.239C57.747 278.76 57.9453 279.429 57.9453 280.245C57.9453 280.812 57.8376 281.327 57.6223 281.792C57.407 282.245 57.0953 282.636 56.6873 282.965C56.2906 283.294 55.809 283.554 55.2423 283.747C55.5483 283.894 55.809 284.132 56.0243 284.461L59.0503 289H56.9423C56.5343 289 56.2453 288.847 56.0753 288.541L53.5423 284.614C53.4403 284.467 53.3326 284.365 53.2193 284.308C53.106 284.24 52.936 284.206 52.7093 284.206H51.7573V289H49.3943ZM51.7573 282.557H53.1513C53.9673 282.557 54.585 282.364 55.0043 281.979C55.435 281.594 55.6503 281.072 55.6503 280.415C55.6503 279.792 55.4463 279.316 55.0383 278.987C54.6416 278.658 54.024 278.494 53.1853 278.494H51.7573V282.557ZM57.5033 289L56.6193 287.062L57.7753 287.3L57.5033 289ZM48.1363 289V288.014C48.1363 287.855 48.176 287.736 48.2553 287.657C48.346 287.578 48.4706 287.521 48.6293 287.487L49.5983 287.283L49.8193 289H48.1363ZM49.8193 276.692L49.5983 278.409L48.6293 278.205C48.4706 278.171 48.346 278.114 48.2553 278.035C48.176 277.956 48.1363 277.837 48.1363 277.678V276.692H49.8193ZM51.3493 289L51.5533 287.283L52.5393 287.487C52.6866 287.521 52.8056 287.578 52.8963 287.657C52.987 287.736 53.0323 287.855 53.0323 288.014V289H51.3493ZM57.5033 289L57.7243 287.283L58.6933 287.487C58.852 287.521 58.971 287.578 59.0503 287.657C59.141 287.736 59.1863 287.855 59.1863 288.014V289H57.5033ZM65.9786 289V276.692H67.2196C67.4123 276.692 67.5596 276.715 67.6616 276.76C67.7749 276.805 67.8883 276.907 68.0016 277.066L74.3936 285.26C74.3709 285.067 74.3539 284.875 74.3426 284.682C74.3313 284.489 74.3256 284.314 74.3256 284.155V276.692H76.3996V289H75.1926C75.0113 289 74.8583 288.972 74.7336 288.915C74.6089 288.858 74.4843 288.751 74.3596 288.592L68.0016 280.449C68.0243 280.642 68.0356 280.806 68.0356 280.942C68.0469 281.078 68.0526 281.254 68.0526 281.469V289H65.9786ZM64.7206 289V288.014C64.7206 287.855 64.7603 287.736 64.8396 287.657C64.9303 287.578 65.0549 287.521 65.2136 287.487L66.1826 287.283L66.4036 289H64.7206ZM67.7126 289L67.9336 287.283L68.9196 287.487C69.0669 287.521 69.1859 287.578 69.2766 287.657C69.3673 287.736 69.4126 287.855 69.4126 288.014V289H67.7126ZM66.4036 276.692L66.1826 278.409L65.2136 278.205C65.0549 278.171 64.9303 278.114 64.8396 278.035C64.7603 277.956 64.7206 277.837 64.7206 277.678V276.692H66.4036ZM74.6656 276.692L74.4446 278.409L73.4756 278.205C73.3169 278.171 73.1923 278.114 73.1016 278.035C73.0223 277.956 72.9826 277.837 72.9826 277.678V276.692H74.6656ZM77.6746 276.692V277.678C77.6746 277.837 77.6293 277.956 77.5386 278.035C77.4593 278.114 77.3403 278.171 77.1816 278.205L76.2126 278.409L75.9916 276.692H77.6746ZM96.1949 289V278.596H92.5059V276.692H102.213V278.596H98.5409V289H96.1949ZM94.9199 289V288.014C94.9199 287.855 94.9652 287.736 95.0559 287.657C95.1466 287.578 95.2656 287.521 95.4129 287.487L96.3989 287.283L96.6029 289H94.9199ZM98.1329 289L98.3369 287.283L99.3229 287.487C99.4816 287.521 99.6006 287.578 99.6799 287.657C99.7706 287.736 99.8159 287.855 99.8159 288.014V289H98.1329ZM100.564 278.188L102.213 278.596V280.092H101.346C101.187 280.092 101.068 280.052 100.989 279.973C100.91 279.882 100.853 279.758 100.819 279.599L100.564 278.188ZM94.1549 278.188L93.8999 279.599C93.8772 279.758 93.8206 279.882 93.7299 279.973C93.6506 280.052 93.5372 280.092 93.3899 280.092H92.5059V278.596L94.1549 278.188ZM113.356 289.136C112.427 289.136 111.577 288.977 110.806 288.66C110.047 288.343 109.39 287.901 108.834 287.334C108.302 286.779 107.877 286.116 107.559 285.345C107.253 284.574 107.1 283.741 107.1 282.846C107.1 281.939 107.253 281.106 107.559 280.347C107.877 279.576 108.302 278.908 108.834 278.341C109.39 277.786 110.047 277.349 110.806 277.032C111.577 276.715 112.427 276.556 113.356 276.556C114.297 276.556 115.153 276.715 115.923 277.032C116.705 277.349 117.363 277.791 117.895 278.358C118.451 278.913 118.876 279.576 119.17 280.347C119.465 281.118 119.612 281.951 119.612 282.846C119.612 283.741 119.465 284.574 119.17 285.345C118.876 286.116 118.451 286.779 117.895 287.334C117.363 287.901 116.705 288.343 115.923 288.66C115.141 288.977 114.286 289.136 113.356 289.136ZM113.356 287.164C114.172 287.164 114.864 286.988 115.43 286.637C116.008 286.286 116.445 285.787 116.739 285.141C117.045 284.495 117.198 283.73 117.198 282.846C117.198 281.973 117.045 281.214 116.739 280.568C116.445 279.922 116.008 279.423 115.43 279.072C114.864 278.709 114.172 278.528 113.356 278.528C112.563 278.528 111.877 278.709 111.299 279.072C110.721 279.423 110.279 279.922 109.973 280.568C109.667 281.214 109.514 281.973 109.514 282.846C109.514 283.719 109.667 284.484 109.973 285.141C110.279 285.787 110.721 286.286 111.299 286.637C111.877 286.988 112.563 287.164 113.356 287.164ZM126.605 289V276.692H131.314C132.243 276.692 133.093 276.845 133.864 277.151C134.646 277.457 135.309 277.876 135.853 278.409C136.408 278.964 136.828 279.622 137.111 280.381C137.406 281.129 137.553 281.951 137.553 282.846C137.553 283.741 137.406 284.569 137.111 285.328C136.828 286.087 136.408 286.733 135.853 287.266C135.309 287.81 134.646 288.235 133.864 288.541C133.093 288.847 132.243 289 131.314 289H126.605ZM128.968 287.164H131.314C132.13 287.164 132.821 286.988 133.388 286.637C133.955 286.286 134.391 285.787 134.697 285.141C135.003 284.484 135.156 283.719 135.156 282.846C135.156 281.973 135.003 281.214 134.697 280.568C134.391 279.922 133.955 279.423 133.388 279.072C132.821 278.709 132.13 278.528 131.314 278.528H128.968V287.164ZM125.347 289V288.014C125.347 287.855 125.387 287.736 125.466 287.657C125.557 287.578 125.681 287.521 125.84 287.487L126.809 287.283L127.03 289H125.347ZM127.03 276.692L126.809 278.409L125.84 278.205C125.681 278.171 125.557 278.114 125.466 278.035C125.387 277.956 125.347 277.837 125.347 277.678V276.692H127.03ZM143.082 289L147.91 276.692H150.307L155.135 289H153.316C153.112 289 152.942 288.949 152.806 288.847C152.67 288.745 152.58 288.62 152.534 288.473L149.576 280.296C149.508 280.081 149.429 279.854 149.338 279.616C149.259 279.378 149.185 279.112 149.117 278.817C149.027 279.112 148.942 279.378 148.862 279.616C148.783 279.843 148.709 280.075 148.641 280.313L145.683 288.473C145.638 288.609 145.547 288.734 145.411 288.847C145.275 288.949 145.105 289 144.901 289H143.082ZM144.595 289V287.861H146.159V289H144.595ZM146.108 285.617L146.397 283.985H151.718L152.007 285.617H146.108ZM151.888 289V287.861H153.554V289H151.888ZM142.572 289V288.014C142.572 287.855 142.618 287.736 142.708 287.657C142.799 287.578 142.918 287.521 143.065 287.487L144.051 287.283L144.255 289H142.572ZM145.428 289L145.649 287.283L146.618 287.487C146.777 287.521 146.896 287.578 146.975 287.657C147.066 287.736 147.111 287.855 147.111 288.014V289H145.428ZM151.089 289V288.014C151.089 287.855 151.135 287.736 151.225 287.657C151.316 287.578 151.435 287.521 151.582 287.487L152.568 287.283L152.772 289H151.089ZM153.945 289L154.166 287.283L155.135 287.487C155.294 287.521 155.413 287.578 155.492 287.657C155.583 287.736 155.628 287.855 155.628 288.014V289H153.945ZM164.031 289V284.24L159.543 276.692H161.617C161.821 276.692 161.985 276.743 162.11 276.845C162.235 276.947 162.331 277.072 162.399 277.219L164.592 281.316C164.728 281.565 164.847 281.798 164.949 282.013C165.051 282.217 165.142 282.427 165.221 282.642C165.278 282.461 165.351 282.262 165.442 282.047C165.544 281.82 165.669 281.577 165.816 281.316L167.992 277.219C168.071 277.094 168.173 276.975 168.298 276.862C168.434 276.749 168.587 276.692 168.757 276.692H170.848L166.36 284.24V289H164.031ZM161.464 277.695V276.692H162.739V277.695H161.464ZM167.55 277.695V276.692H169.012V277.695H167.55ZM161.022 276.692L160.818 278.409L159.832 278.205C159.685 278.171 159.566 278.114 159.475 278.035C159.384 277.956 159.339 277.837 159.339 277.678V276.692H161.022ZM163.997 276.692V277.678C163.997 277.837 163.952 277.956 163.861 278.035C163.77 278.114 163.651 278.171 163.504 278.205L162.518 278.409L162.314 276.692H163.997ZM168.077 276.692L167.856 278.409L166.887 278.205C166.728 278.171 166.604 278.114 166.513 278.035C166.434 277.956 166.394 277.837 166.394 277.678V276.692H168.077ZM171.052 276.692V277.678C171.052 277.837 171.007 277.956 170.916 278.035C170.825 278.114 170.701 278.171 170.542 278.205L169.573 278.409L169.352 276.692H171.052ZM162.756 289V288.014C162.756 287.855 162.796 287.736 162.875 287.657C162.966 287.578 163.09 287.521 163.249 287.487L164.218 287.283L164.439 289H162.756ZM165.952 289L166.173 287.283L167.142 287.487C167.301 287.521 167.42 287.578 167.499 287.657C167.59 287.736 167.635 287.855 167.635 288.014V289H165.952ZM176.594 289.119C176.243 289.119 175.937 289 175.676 288.762C175.427 288.513 175.302 288.201 175.302 287.827C175.302 287.476 175.427 287.175 175.676 286.926C175.937 286.677 176.243 286.552 176.594 286.552C176.968 286.552 177.28 286.677 177.529 286.926C177.79 287.175 177.92 287.476 177.92 287.827C177.92 288.201 177.79 288.513 177.529 288.762C177.28 289 176.968 289.119 176.594 289.119ZM194.22 289V276.692H196.583V287.096H201.734V289H194.22ZM200.085 287.487L200.34 286.093C200.374 285.934 200.43 285.815 200.51 285.736C200.589 285.645 200.708 285.6 200.867 285.6H201.734V287.096L200.085 287.487ZM192.962 289V288.014C192.962 287.855 193.001 287.736 193.081 287.657C193.171 287.578 193.296 287.521 193.455 287.487L194.424 287.283L194.645 289H192.962ZM194.645 276.692L194.424 278.409L193.455 278.205C193.296 278.171 193.171 278.114 193.081 278.035C193.001 277.956 192.962 277.837 192.962 277.678V276.692H194.645ZM197.875 276.692V277.678C197.875 277.837 197.829 277.956 197.739 278.035C197.648 278.114 197.529 278.171 197.382 278.205L196.396 278.409L196.192 276.692H197.875ZM208.53 289V276.692H216.316V278.528H210.893V281.928H215.007V283.696H210.893V287.164H216.316V289H208.53ZM214.65 287.555L214.905 286.161C214.95 286.002 215.012 285.883 215.092 285.804C215.171 285.713 215.284 285.668 215.432 285.668H216.316V287.164L214.65 287.555ZM214.65 278.137L216.316 278.528V280.024H215.432C215.284 280.024 215.171 279.984 215.092 279.905C215.012 279.814 214.95 279.69 214.905 279.531L214.65 278.137ZM208.955 276.692L208.751 278.409L207.765 278.205C207.617 278.171 207.498 278.114 207.408 278.035C207.317 277.956 207.272 277.837 207.272 277.678V276.692H208.955ZM207.272 289V288.014C207.272 287.855 207.311 287.736 207.391 287.657C207.481 287.578 207.606 287.521 207.765 287.487L208.734 287.283L208.955 289H207.272ZM222.567 289L227.395 276.692H229.792L234.62 289H232.801C232.597 289 232.427 288.949 232.291 288.847C232.155 288.745 232.064 288.62 232.019 288.473L229.061 280.296C228.993 280.081 228.913 279.854 228.823 279.616C228.743 279.378 228.67 279.112 228.602 278.817C228.511 279.112 228.426 279.378 228.347 279.616C228.267 279.843 228.194 280.075 228.126 280.313L225.168 288.473C225.122 288.609 225.032 288.734 224.896 288.847C224.76 288.949 224.59 289 224.386 289H222.567ZM224.08 289V287.861H225.644V289H224.08ZM225.593 285.617L225.882 283.985H231.203L231.492 285.617H225.593ZM231.373 289V287.861H233.039V289H231.373ZM222.057 289V288.014C222.057 287.855 222.102 287.736 222.193 287.657C222.283 287.578 222.402 287.521 222.55 287.487L223.536 287.283L223.74 289H222.057ZM224.913 289L225.134 287.283L226.103 287.487C226.261 287.521 226.38 287.578 226.46 287.657C226.55 287.736 226.596 287.855 226.596 288.014V289H224.913ZM230.574 289V288.014C230.574 287.855 230.619 287.736 230.71 287.657C230.8 287.578 230.919 287.521 231.067 287.487L232.053 287.283L232.257 289H230.574ZM233.43 289L233.651 287.283L234.62 287.487C234.778 287.521 234.897 287.578 234.977 287.657C235.067 287.736 235.113 287.855 235.113 288.014V289H233.43ZM241.914 289V276.692H246.623C247.552 276.692 248.402 276.845 249.173 277.151C249.955 277.457 250.618 277.876 251.162 278.409C251.717 278.964 252.137 279.622 252.42 280.381C252.715 281.129 252.862 281.951 252.862 282.846C252.862 283.741 252.715 284.569 252.42 285.328C252.137 286.087 251.717 286.733 251.162 287.266C250.618 287.81 249.955 288.235 249.173 288.541C248.402 288.847 247.552 289 246.623 289H241.914ZM244.277 287.164H246.623C247.439 287.164 248.13 286.988 248.697 286.637C249.264 286.286 249.7 285.787 250.006 285.141C250.312 284.484 250.465 283.719 250.465 282.846C250.465 281.973 250.312 281.214 250.006 280.568C249.7 279.922 249.264 279.423 248.697 279.072C248.13 278.709 247.439 278.528 246.623 278.528H244.277V287.164ZM240.656 289V288.014C240.656 287.855 240.696 287.736 240.775 287.657C240.866 287.578 240.99 287.521 241.149 287.487L242.118 287.283L242.339 289H240.656ZM242.339 276.692L242.118 278.409L241.149 278.205C240.99 278.171 240.866 278.114 240.775 278.035C240.696 277.956 240.656 277.837 240.656 277.678V276.692H242.339ZM271.217 289V278.596H267.528V276.692H277.235V278.596H273.563V289H271.217ZM269.942 289V288.014C269.942 287.855 269.988 287.736 270.078 287.657C270.169 287.578 270.288 287.521 270.435 287.487L271.421 287.283L271.625 289H269.942ZM273.155 289L273.359 287.283L274.345 287.487C274.504 287.521 274.623 287.578 274.702 287.657C274.793 287.736 274.838 287.855 274.838 288.014V289H273.155ZM275.586 278.188L277.235 278.596V280.092H276.368C276.21 280.092 276.091 280.052 276.011 279.973C275.932 279.882 275.875 279.758 275.841 279.599L275.586 278.188ZM269.177 278.188L268.922 279.599C268.9 279.758 268.843 279.882 268.752 279.973C268.673 280.052 268.56 280.092 268.412 280.092H267.528V278.596L269.177 278.188ZM288.379 289.136C287.449 289.136 286.599 288.977 285.829 288.66C285.069 288.343 284.412 287.901 283.857 287.334C283.324 286.779 282.899 286.116 282.582 285.345C282.276 284.574 282.123 283.741 282.123 282.846C282.123 281.939 282.276 281.106 282.582 280.347C282.899 279.576 283.324 278.908 283.857 278.341C284.412 277.786 285.069 277.349 285.829 277.032C286.599 276.715 287.449 276.556 288.379 276.556C289.319 276.556 290.175 276.715 290.946 277.032C291.728 277.349 292.385 277.791 292.918 278.358C293.473 278.913 293.898 279.576 294.193 280.347C294.487 281.118 294.635 281.951 294.635 282.846C294.635 283.741 294.487 284.574 294.193 285.345C293.898 286.116 293.473 286.779 292.918 287.334C292.385 287.901 291.728 288.343 290.946 288.66C290.164 288.977 289.308 289.136 288.379 289.136ZM288.379 287.164C289.195 287.164 289.886 286.988 290.453 286.637C291.031 286.286 291.467 285.787 291.762 285.141C292.068 284.495 292.221 283.73 292.221 282.846C292.221 281.973 292.068 281.214 291.762 280.568C291.467 279.922 291.031 279.423 290.453 279.072C289.886 278.709 289.195 278.528 288.379 278.528C287.585 278.528 286.9 278.709 286.322 279.072C285.744 279.423 285.302 279.922 284.996 280.568C284.69 281.214 284.537 281.973 284.537 282.846C284.537 283.719 284.69 284.484 284.996 285.141C285.302 285.787 285.744 286.286 286.322 286.637C286.9 286.988 287.585 287.164 288.379 287.164ZM301.627 289V276.692H303.412C303.627 276.692 303.786 276.709 303.888 276.743C303.99 276.777 304.092 276.885 304.194 277.066L307.832 283.883C307.934 284.064 308.025 284.251 308.104 284.444C308.183 284.637 308.263 284.835 308.342 285.039C308.421 284.869 308.506 284.676 308.597 284.461C308.688 284.246 308.778 284.042 308.869 283.849L312.456 277.066C312.558 276.885 312.66 276.777 312.762 276.743C312.875 276.709 313.04 276.692 313.255 276.692H315.023V289H312.966V281.095C312.966 280.936 312.966 280.778 312.966 280.619C312.977 280.449 312.989 280.279 313 280.109L309.328 287.011C309.158 287.351 308.886 287.521 308.512 287.521H308.189C307.815 287.521 307.537 287.351 307.356 287.011L303.633 280.092C303.656 280.273 303.673 280.449 303.684 280.619C303.695 280.789 303.701 280.948 303.701 281.095V289H301.627ZM300.369 289V288.014C300.369 287.855 300.409 287.736 300.488 287.657C300.579 287.578 300.703 287.521 300.862 287.487L301.831 287.283L302.052 289H300.369ZM303.361 289L303.582 287.283L304.568 287.487C304.715 287.521 304.834 287.578 304.925 287.657C305.016 287.736 305.061 287.855 305.061 288.014V289H303.361ZM302.052 276.692L301.831 278.409L300.862 278.205C300.703 278.171 300.579 278.114 300.488 278.035C300.409 277.956 300.369 277.837 300.369 277.678V276.692H302.052ZM311.606 289V288.014C311.606 287.855 311.646 287.736 311.725 287.657C311.816 287.578 311.94 287.521 312.099 287.487L313.068 287.283L313.289 289H311.606ZM314.615 289L314.819 287.283L315.805 287.487C315.952 287.521 316.071 287.578 316.162 287.657C316.253 287.736 316.298 287.855 316.298 288.014V289H314.615ZM316.298 276.692V277.678C316.298 277.837 316.253 277.956 316.162 278.035C316.071 278.114 315.952 278.171 315.805 278.205L314.819 278.409L314.615 276.692H316.298ZM328.271 289.136C327.342 289.136 326.492 288.977 325.721 288.66C324.962 288.343 324.304 287.901 323.749 287.334C323.216 286.779 322.791 286.116 322.474 285.345C322.168 284.574 322.015 283.741 322.015 282.846C322.015 281.939 322.168 281.106 322.474 280.347C322.791 279.576 323.216 278.908 323.749 278.341C324.304 277.786 324.962 277.349 325.721 277.032C326.492 276.715 327.342 276.556 328.271 276.556C329.212 276.556 330.067 276.715 330.838 277.032C331.62 277.349 332.277 277.791 332.81 278.358C333.365 278.913 333.79 279.576 334.085 280.347C334.38 281.118 334.527 281.951 334.527 282.846C334.527 283.741 334.38 284.574 334.085 285.345C333.79 286.116 333.365 286.779 332.81 287.334C332.277 287.901 331.62 288.343 330.838 288.66C330.056 288.977 329.2 289.136 328.271 289.136ZM328.271 287.164C329.087 287.164 329.778 286.988 330.345 286.637C330.923 286.286 331.359 285.787 331.654 285.141C331.96 284.495 332.113 283.73 332.113 282.846C332.113 281.973 331.96 281.214 331.654 280.568C331.359 279.922 330.923 279.423 330.345 279.072C329.778 278.709 329.087 278.528 328.271 278.528C327.478 278.528 326.792 278.709 326.214 279.072C325.636 279.423 325.194 279.922 324.888 280.568C324.582 281.214 324.429 281.973 324.429 282.846C324.429 283.719 324.582 284.484 324.888 285.141C325.194 285.787 325.636 286.286 326.214 286.637C326.792 286.988 327.478 287.164 328.271 287.164ZM341.519 289V276.692H345.31C346.285 276.692 347.124 276.822 347.826 277.083C348.54 277.332 349.09 277.718 349.475 278.239C349.872 278.76 350.07 279.429 350.07 280.245C350.07 280.812 349.963 281.327 349.747 281.792C349.532 282.245 349.22 282.636 348.812 282.965C348.416 283.294 347.934 283.554 347.367 283.747C347.673 283.894 347.934 284.132 348.149 284.461L351.175 289H349.067C348.659 289 348.37 288.847 348.2 288.541L345.667 284.614C345.565 284.467 345.458 284.365 345.344 284.308C345.231 284.24 345.061 284.206 344.834 284.206H343.882V289H341.519ZM343.882 282.557H345.276C346.092 282.557 346.71 282.364 347.129 281.979C347.56 281.594 347.775 281.072 347.775 280.415C347.775 279.792 347.571 279.316 347.163 278.987C346.767 278.658 346.149 278.494 345.31 278.494H343.882V282.557ZM349.628 289L348.744 287.062L349.9 287.3L349.628 289ZM340.261 289V288.014C340.261 287.855 340.301 287.736 340.38 287.657C340.471 287.578 340.596 287.521 340.754 287.487L341.723 287.283L341.944 289H340.261ZM341.944 276.692L341.723 278.409L340.754 278.205C340.596 278.171 340.471 278.114 340.38 278.035C340.301 277.956 340.261 277.837 340.261 277.678V276.692H341.944ZM343.474 289L343.678 287.283L344.664 287.487C344.812 287.521 344.931 287.578 345.021 287.657C345.112 287.736 345.157 287.855 345.157 288.014V289H343.474ZM349.628 289L349.849 287.283L350.818 287.487C350.977 287.521 351.096 287.578 351.175 287.657C351.266 287.736 351.311 287.855 351.311 288.014V289H349.628ZM358.104 289V276.692H361.895C362.869 276.692 363.708 276.822 364.411 277.083C365.125 277.332 365.674 277.718 366.06 278.239C366.456 278.76 366.655 279.429 366.655 280.245C366.655 280.812 366.547 281.327 366.332 281.792C366.116 282.245 365.805 282.636 365.397 282.965C365 283.294 364.518 283.554 363.952 283.747C364.258 283.894 364.518 284.132 364.734 284.461L367.76 289H365.652C365.244 289 364.955 288.847 364.785 288.541L362.252 284.614C362.15 284.467 362.042 284.365 361.929 284.308C361.815 284.24 361.645 284.206 361.419 284.206H360.467V289H358.104ZM360.467 282.557H361.861C362.677 282.557 363.294 282.364 363.714 281.979C364.144 281.594 364.36 281.072 364.36 280.415C364.36 279.792 364.156 279.316 363.748 278.987C363.351 278.658 362.733 278.494 361.895 278.494H360.467V282.557ZM366.213 289L365.329 287.062L366.485 287.3L366.213 289ZM356.846 289V288.014C356.846 287.855 356.885 287.736 356.965 287.657C357.055 287.578 357.18 287.521 357.339 287.487L358.308 287.283L358.529 289H356.846ZM358.529 276.692L358.308 278.409L357.339 278.205C357.18 278.171 357.055 278.114 356.965 278.035C356.885 277.956 356.846 277.837 356.846 277.678V276.692H358.529ZM360.059 289L360.263 287.283L361.249 287.487C361.396 287.521 361.515 287.578 361.606 287.657C361.696 287.736 361.742 287.855 361.742 288.014V289H360.059ZM366.213 289L366.434 287.283L367.403 287.487C367.561 287.521 367.68 287.578 367.76 287.657C367.85 287.736 367.896 287.855 367.896 288.014V289H366.213ZM379.186 289.136C378.257 289.136 377.407 288.977 376.636 288.66C375.877 288.343 375.219 287.901 374.664 287.334C374.131 286.779 373.706 286.116 373.389 285.345C373.083 284.574 372.93 283.741 372.93 282.846C372.93 281.939 373.083 281.106 373.389 280.347C373.706 279.576 374.131 278.908 374.664 278.341C375.219 277.786 375.877 277.349 376.636 277.032C377.407 276.715 378.257 276.556 379.186 276.556C380.127 276.556 380.982 276.715 381.753 277.032C382.535 277.349 383.192 277.791 383.725 278.358C384.28 278.913 384.705 279.576 385 280.347C385.295 281.118 385.442 281.951 385.442 282.846C385.442 283.741 385.295 284.574 385 285.345C384.705 286.116 384.28 286.779 383.725 287.334C383.192 287.901 382.535 288.343 381.753 288.66C380.971 288.977 380.115 289.136 379.186 289.136ZM379.186 287.164C380.002 287.164 380.693 286.988 381.26 286.637C381.838 286.286 382.274 285.787 382.569 285.141C382.875 284.495 383.028 283.73 383.028 282.846C383.028 281.973 382.875 281.214 382.569 280.568C382.274 279.922 381.838 279.423 381.26 279.072C380.693 278.709 380.002 278.528 379.186 278.528C378.393 278.528 377.707 278.709 377.129 279.072C376.551 279.423 376.109 279.922 375.803 280.568C375.497 281.214 375.344 281.973 375.344 282.846C375.344 283.719 375.497 284.484 375.803 285.141C376.109 285.787 376.551 286.286 377.129 286.637C377.707 286.988 378.393 287.164 379.186 287.164ZM395.324 289L391.499 276.692H393.471C393.675 276.692 393.845 276.743 393.981 276.845C394.129 276.936 394.219 277.06 394.253 277.219L396.31 284.546C396.367 284.727 396.418 284.926 396.463 285.141C396.509 285.345 396.548 285.566 396.582 285.804C396.628 285.555 396.679 285.328 396.735 285.124C396.792 284.909 396.849 284.716 396.905 284.546L399.285 277.219C399.331 277.094 399.421 276.975 399.557 276.862C399.693 276.749 399.858 276.692 400.05 276.692H400.747C401.155 276.692 401.416 276.868 401.529 277.219L403.875 284.546C403.932 284.716 403.989 284.903 404.045 285.107C404.113 285.311 404.17 285.526 404.215 285.753C404.261 285.504 404.306 285.277 404.351 285.073C404.397 284.869 404.436 284.693 404.47 284.546L406.527 277.219C406.561 277.083 406.646 276.964 406.782 276.862C406.93 276.749 407.1 276.692 407.292 276.692H409.128L405.32 289H403.195L400.543 280.619C400.498 280.449 400.453 280.302 400.407 280.177C400.373 280.052 400.351 279.956 400.339 279.888C400.305 279.979 400.266 280.098 400.22 280.245C400.186 280.392 400.152 280.517 400.118 280.619L397.449 289H395.324ZM393.165 277.253V276.692H394.423V277.253H393.165ZM406.391 277.253V276.692H407.666V277.253H406.391ZM392.587 276.692L392.383 278.409L391.397 278.205C391.25 278.171 391.131 278.114 391.04 278.035C390.95 277.956 390.904 277.837 390.904 277.678V276.692H392.587ZM395.562 276.692V277.678C395.562 277.837 395.517 277.956 395.426 278.035C395.347 278.114 395.228 278.171 395.069 278.205L394.1 278.409L393.879 276.692H395.562ZM406.799 276.692L406.578 278.409L405.609 278.205C405.451 278.171 405.326 278.114 405.235 278.035C405.145 277.956 405.099 277.837 405.099 277.678V276.692H406.799ZM409.774 276.692V277.678C409.774 277.837 409.729 277.956 409.638 278.035C409.548 278.114 409.429 278.171 409.281 278.205L408.295 278.409L408.091 276.692H409.774ZM415.63 289.119C415.279 289.119 414.973 289 414.712 288.762C414.463 288.513 414.338 288.201 414.338 287.827C414.338 287.476 414.463 287.175 414.712 286.926C414.973 286.677 415.279 286.552 415.63 286.552C416.004 286.552 416.316 286.677 416.565 286.926C416.826 287.175 416.956 287.476 416.956 287.827C416.956 288.201 416.826 288.513 416.565 288.762C416.316 289 416.004 289.119 415.63 289.119Z" fill="#333F4A"/>
<path d="M251.5 0L201.5 73L213.5 92.5L249 42.5L296.5 125.5H323L251.5 0Z" fill="#D09C34"/>
<path d="M178.5 60.5L162.5 79L194 125H222.5L178.5 60.5Z" fill="#0A1D3D"/>
<path d="M108 5.5V1.5H135V5.5H134V63.5L186 1.5H216L112 125.5H109V5.5H108Z" fill="#0A1D3D"/>
</svg>
